<svg width="2181" height="622" viewBox="0 0 2181 622" fill="none" xmlns="http://www.w3.org/2000/svg">
<path d="M42.3076 505.05V155.959H252.989V193.459H84.5804V311.414H242.08V348.914H84.5804V467.55H255.717V505.05H42.3076ZM582.947 603.232V243.232H621.81V284.823H626.583C629.538 280.277 633.629 274.482 638.856 267.436C644.197 260.277 651.81 253.914 661.697 248.345C671.697 242.664 685.22 239.823 702.265 239.823C724.31 239.823 743.742 245.334 760.56 256.357C777.379 267.379 790.504 283.004 799.935 303.232C809.367 323.459 814.083 347.323 814.083 374.823C814.083 402.55 809.367 426.584 799.935 446.925C790.504 467.152 777.435 482.834 760.731 493.97C744.026 504.993 724.765 510.504 702.947 510.504C686.129 510.504 672.663 507.72 662.549 502.152C652.435 496.47 644.651 490.05 639.197 482.891C633.742 475.618 629.538 469.595 626.583 464.823H623.174V603.232H582.947ZM622.492 374.141C622.492 393.914 625.39 411.357 631.185 426.47C636.981 441.47 645.447 453.232 656.583 461.754C667.72 470.164 681.356 474.368 697.492 474.368C714.31 474.368 728.345 469.936 739.595 461.073C750.958 452.095 759.481 440.05 765.163 424.936C770.958 409.709 773.856 392.777 773.856 374.141C773.856 355.732 771.015 339.141 765.333 324.368C759.765 309.482 751.299 297.72 739.935 289.084C728.685 280.334 714.538 275.959 697.492 275.959C681.129 275.959 667.379 280.107 656.242 288.402C645.106 296.584 636.697 308.061 631.015 322.834C625.333 337.493 622.492 354.595 622.492 374.141ZM985.219 510.504C959.992 510.504 938.231 504.936 919.935 493.8C901.754 482.55 887.719 466.868 877.833 446.754C868.06 426.527 863.174 403.004 863.174 376.186C863.174 349.368 868.06 325.732 877.833 305.277C887.719 284.709 901.469 268.686 919.083 257.209C936.81 245.618 957.492 239.823 981.129 239.823C994.765 239.823 1008.23 242.095 1021.53 246.641C1034.82 251.186 1046.92 258.573 1057.83 268.8C1068.74 278.914 1077.44 292.323 1083.91 309.027C1090.39 325.732 1093.63 346.3 1093.63 370.732V387.777H891.81V353.004H1052.72C1052.72 338.232 1049.76 325.05 1043.86 313.459C1038.06 301.868 1029.76 292.72 1018.97 286.016C1008.29 279.311 995.674 275.959 981.129 275.959C965.106 275.959 951.242 279.936 939.538 287.891C927.947 295.732 919.026 305.959 912.776 318.573C906.526 331.186 903.401 344.709 903.401 359.141V382.323C903.401 402.095 906.81 418.857 913.629 432.607C920.56 446.243 930.163 456.641 942.435 463.8C954.708 470.845 968.969 474.368 985.219 474.368C995.788 474.368 1005.33 472.891 1013.86 469.936C1022.49 466.868 1029.94 462.323 1036.19 456.3C1042.44 450.164 1047.26 442.55 1050.67 433.459L1089.54 444.368C1085.45 457.55 1078.57 469.141 1068.91 479.141C1059.25 489.027 1047.32 496.754 1033.12 502.323C1018.91 507.777 1002.95 510.504 985.219 510.504ZM1195.05 347.55V505.05H1154.82V243.232H1193.69V284.141H1197.09C1203.23 270.845 1212.55 260.164 1225.05 252.095C1237.55 243.914 1253.69 239.823 1273.46 239.823C1291.19 239.823 1306.7 243.459 1319.99 250.732C1333.29 257.891 1343.63 268.8 1351.01 283.459C1358.4 298.004 1362.09 316.414 1362.09 338.686V505.05H1321.87V341.414C1321.87 320.845 1316.53 304.823 1305.84 293.345C1295.16 281.754 1280.5 275.959 1261.87 275.959C1249.03 275.959 1237.55 278.743 1227.44 284.311C1217.44 289.879 1209.54 298.004 1203.74 308.686C1197.95 319.368 1195.05 332.323 1195.05 347.55ZM1621.06 301.868L1584.92 312.095C1582.65 306.073 1579.3 300.22 1574.86 294.539C1570.55 288.743 1564.64 283.97 1557.14 280.22C1549.64 276.47 1540.03 274.595 1528.33 274.595C1512.31 274.595 1498.96 278.289 1488.27 285.675C1477.71 292.948 1472.42 302.209 1472.42 313.459C1472.42 323.459 1476.06 331.357 1483.33 337.152C1490.6 342.948 1501.97 347.777 1517.42 351.641L1556.28 361.186C1579.69 366.868 1597.14 375.561 1608.61 387.266C1620.09 398.857 1625.83 413.8 1625.83 432.095C1625.83 447.095 1621.51 460.504 1612.88 472.323C1604.35 484.141 1592.42 493.459 1577.08 500.277C1561.74 507.095 1543.9 510.504 1523.56 510.504C1496.85 510.504 1474.75 504.709 1457.25 493.118C1439.75 481.527 1428.67 464.595 1424.01 442.323L1462.19 432.777C1465.83 446.868 1472.71 457.436 1482.82 464.482C1493.05 471.527 1506.4 475.05 1522.88 475.05C1541.63 475.05 1556.51 471.073 1567.53 463.118C1578.67 455.05 1584.24 445.391 1584.24 434.141C1584.24 425.05 1581.06 417.436 1574.69 411.3C1568.33 405.05 1558.56 400.391 1545.38 397.323L1501.74 387.095C1477.76 381.414 1460.15 372.607 1448.9 360.675C1437.76 348.629 1432.19 333.573 1432.19 315.504C1432.19 300.732 1436.34 287.664 1444.64 276.3C1453.05 264.936 1464.47 256.016 1478.9 249.539C1493.44 243.061 1509.92 239.823 1528.33 239.823C1554.24 239.823 1574.58 245.504 1589.35 256.868C1604.24 268.232 1614.81 283.232 1621.06 301.868ZM1796.16 510.504C1770.93 510.504 1749.17 504.936 1730.87 493.8C1712.69 482.55 1698.66 466.868 1688.77 446.754C1679 426.527 1674.11 403.004 1674.11 376.186C1674.11 349.368 1679 325.732 1688.77 305.277C1698.66 284.709 1712.41 268.686 1730.02 257.209C1747.75 245.618 1768.43 239.823 1792.07 239.823C1805.7 239.823 1819.17 242.095 1832.46 246.641C1845.76 251.186 1857.86 258.573 1868.77 268.8C1879.68 278.914 1888.37 292.323 1894.85 309.027C1901.33 325.732 1904.57 346.3 1904.57 370.732V387.777H1702.75V353.004H1863.66C1863.66 338.232 1860.7 325.05 1854.79 313.459C1849 301.868 1840.7 292.72 1829.91 286.016C1819.23 279.311 1806.61 275.959 1792.07 275.959C1776.04 275.959 1762.18 279.936 1750.48 287.891C1738.88 295.732 1729.96 305.959 1723.71 318.573C1717.46 331.186 1714.34 344.709 1714.34 359.141V382.323C1714.34 402.095 1717.75 418.857 1724.57 432.607C1731.5 446.243 1741.1 456.641 1753.37 463.8C1765.65 470.845 1779.91 474.368 1796.16 474.368C1806.73 474.368 1816.27 472.891 1824.79 469.936C1833.43 466.868 1840.87 462.323 1847.12 456.3C1853.37 450.164 1858.2 442.55 1861.61 433.459L1900.48 444.368C1896.38 457.55 1889.51 469.141 1879.85 479.141C1870.19 489.027 1858.26 496.754 1844.05 502.323C1829.85 507.777 1813.88 510.504 1796.16 510.504ZM2151.21 301.868L2115.08 312.095C2112.8 306.073 2109.45 300.22 2105.02 294.539C2100.7 288.743 2094.79 283.97 2087.29 280.22C2079.79 276.47 2070.19 274.595 2058.49 274.595C2042.46 274.595 2029.11 278.289 2018.43 285.675C2007.86 292.948 2002.58 302.209 2002.58 313.459C2002.58 323.459 2006.21 331.357 2013.49 337.152C2020.76 342.948 2032.12 347.777 2047.58 351.641L2086.44 361.186C2109.85 366.868 2127.29 375.561 2138.77 387.266C2150.25 398.857 2155.99 413.8 2155.99 432.095C2155.99 447.095 2151.67 460.504 2143.03 472.323C2134.51 484.141 2122.58 493.459 2107.24 500.277C2091.9 507.095 2074.05 510.504 2053.71 510.504C2027.01 510.504 2004.91 504.709 1987.41 493.118C1969.91 481.527 1958.83 464.595 1954.17 442.323L1992.35 432.777C1995.99 446.868 2002.86 457.436 2012.98 464.482C2023.2 471.527 2036.55 475.05 2053.03 475.05C2071.78 475.05 2086.67 471.073 2097.69 463.118C2108.83 455.05 2114.4 445.391 2114.4 434.141C2114.4 425.05 2111.21 417.436 2104.85 411.3C2098.49 405.05 2088.71 400.391 2075.53 397.323L2031.9 387.095C2007.92 381.414 1990.3 372.607 1979.05 360.675C1967.92 348.629 1962.35 333.573 1962.35 315.504C1962.35 300.732 1966.5 287.664 1974.79 276.3C1983.2 264.936 1994.62 256.016 2009.05 249.539C2023.6 243.061 2040.08 239.823 2058.49 239.823C2084.4 239.823 2104.74 245.504 2119.51 256.868C2134.4 268.232 2144.96 283.232 2151.21 301.868Z" fill="white"/>
<path d="M409.152 286.333L461.425 375.538L513.698 286.333H552.334L481.88 395.424L552.334 504.515H513.698L461.425 419.856L409.152 504.515H370.516L439.834 395.424L370.516 286.333H409.152Z" fill="#487958"/>
<path d="M330.896 169.164L383.169 258.368L435.442 169.164H474.078L403.623 278.254L474.078 387.345H435.442L383.169 302.686L330.896 387.345H292.26L361.578 278.254L292.26 169.164H330.896Z" fill="#487958"/>
</svg>
